HIERARCHY
ROOT Hips
{
  OFFSET -21.6994 31.6921 0
  CHANNELS 6 Xposition Yposition Zposition Zrotation Xrotation Yrotation
  JOINT Bip01_Pelvis
  {
    OFFSET 0 0 0
    CHANNELS 6 Xposition Yposition Zposition Zrotation Xrotation Yrotation
    JOINT BN_Tail_01
    {
      OFFSET -7.25226 -1.74978 0
      CHANNELS 6 Xposition Yposition Zposition Zrotation Xrotation Yrotation
      JOINT BN_Tail_02
      {
        OFFSET 15.788 0 0
        CHANNELS 6 Xposition Yposition Zposition Zrotation Xrotation Yrotation
        JOINT BN_Tail_03
        {
          OFFSET 16.0015 0 0
          CHANNELS 6 Xposition Yposition Zposition Zrotation Xrotation Yrotation
          JOINT BN_Tail_04
          {
            OFFSET 16.1689 0 0
            CHANNELS 6 Xposition Yposition Zposition Zrotation Xrotation Yrotation
            End Site
            {
              OFFSET 0 0 0
            }
          }
        }
      }
    }
    JOINT Bip01_Spine
    {
      OFFSET 6.38383 2.70859 0.585432
      CHANNELS 6 Xposition Yposition Zposition Zrotation Xrotation Yrotation
      JOINT BN_Mane_02
      {
        OFFSET 6.12662 8.45826 0
        CHANNELS 6 Xposition Yposition Zposition Zrotation Xrotation Yrotation
        End Site
        {
          OFFSET 0 0 0
        }
      }
      JOINT Bip01_R_Thigh
      {
        OFFSET -7.04074 -2.18223 -5.47025
        CHANNELS 6 Xposition Yposition Zposition Zrotation Xrotation Yrotation
        JOINT Bip01_R_Calf
        {
          OFFSET 13.6591 0 0
          CHANNELS 6 Xposition Yposition Zposition Zrotation Xrotation Yrotation
          JOINT Bip01_R_HorseLink
          {
            OFFSET 9.07516 0 0
            CHANNELS 6 Xposition Yposition Zposition Zrotation Xrotation Yrotation
            JOINT Bip01_R_Foot
            {
              OFFSET 8.13856 0 0
              CHANNELS 6 Xposition Yposition Zposition Zrotation Xrotation Yrotation
              JOINT Bip01_R_Toe0
              {
                OFFSET 3.79737 6.30086 0
                CHANNELS 6 Xposition Yposition Zposition Zrotation Xrotation Yrotation
                JOINT Bip01_R_Toe0Nub
                {
                  OFFSET 0.838764 0 0
                  CHANNELS 6 Xposition Yposition Zposition Zrotation Xrotation Yrotation
                  End Site
                  {
                    OFFSET 0 0 0
                  }
                }
              }
            }
          }
        }
      }
      JOINT Bip01_L_Thigh
      {
        OFFSET -6.18667 -2.14873 5.3508
        CHANNELS 6 Xposition Yposition Zposition Zrotation Xrotation Yrotation
        JOINT Bip01_L_Calf
        {
          OFFSET 13.6591 0 0
          CHANNELS 6 Xposition Yposition Zposition Zrotation Xrotation Yrotation
          JOINT Bip01_L_HorseLink
          {
            OFFSET 9.07515 0 0
            CHANNELS 6 Xposition Yposition Zposition Zrotation Xrotation Yrotation
            JOINT Bip01_L_Foot
            {
              OFFSET 8.13856 0 0
              CHANNELS 6 Xposition Yposition Zposition Zrotation Xrotation Yrotation
              JOINT Bip01_L_Toe0
              {
                OFFSET 3.79737 6.30086 0
                CHANNELS 6 Xposition Yposition Zposition Zrotation Xrotation Yrotation
                JOINT Bip01_L_Toe0Nub
                {
                  OFFSET 0.838764 0 0
                  CHANNELS 6 Xposition Yposition Zposition Zrotation Xrotation Yrotation
                  End Site
                  {
                    OFFSET 0 0 0
                  }
                }
              }
            }
          }
        }
      }
      JOINT Bip01_Spine1
      {
        OFFSET 12.1687 -0.0105438 0
        CHANNELS 6 Xposition Yposition Zposition Zrotation Xrotation Yrotation
        JOINT BN_Mane_R_01
        {
          OFFSET -0.157498 5.09008 -6.54008
          CHANNELS 6 Xposition Yposition Zposition Zrotation Xrotation Yrotation
          End Site
          {
            OFFSET 0 0 0
          }
        }
        JOINT BN_Mane_R_02
        {
          OFFSET -0.1575 5.09007 6.54
          CHANNELS 6 Xposition Yposition Zposition Zrotation Xrotation Yrotation
          End Site
          {
            OFFSET 0 0 0
          }
        }
        JOINT BN_Mane_01
        {
          OFFSET 8.29709 8.50414 0
          CHANNELS 6 Xposition Yposition Zposition Zrotation Xrotation Yrotation
          End Site
          {
            OFFSET 0 0 0
          }
        }
        JOINT Bip01_Spine2
        {
          OFFSET 13.2802 -0.0100708 1.51992e-005
          CHANNELS 6 Xposition Yposition Zposition Zrotation Xrotation Yrotation
          JOINT Bip01_Neck
          {
            OFFSET 12.4891 -6.66662 0
            CHANNELS 6 Xposition Yposition Zposition Zrotation Xrotation Yrotation
            JOINT Bip01_R_Clavicle
            {
              OFFSET -7.4542 -2.82621 -1.17874
              CHANNELS 6 Xposition Yposition Zposition Zrotation Xrotation Yrotation
              JOINT Bip01_R_UpperArm
              {
                OFFSET 13.2557 0 0
                CHANNELS 6 Xposition Yposition Zposition Zrotation Xrotation Yrotation
                JOINT Bip01_R_Forearm
                {
                  OFFSET 12.8897 0 0
                  CHANNELS 6 Xposition Yposition Zposition Zrotation Xrotation Yrotation
                  JOINT Bip01_R_Hand
                  {
                    OFFSET 11.2622 0 0
                    CHANNELS 6 Xposition Yposition Zposition Zrotation Xrotation Yrotation
                    JOINT Bip01_R_Finger0
                    {
                      OFFSET 3.98015 -0.208661 -0.0949803
                      CHANNELS 6 Xposition Yposition Zposition Zrotation Xrotation Yrotation
                      JOINT Bip01_R_Finger0Nub
                      {
                        OFFSET 6.57561 0 0
                        CHANNELS 6 Xposition Yposition Zposition Zrotation Xrotation Yrotation
                        End Site
                        {
                          OFFSET 0 0 0
                        }
                      }
                    }
                  }
                }
              }
            }
            JOINT Bip01_L_Clavicle
            {
              OFFSET -7.4541 -2.82679 1.17708
              CHANNELS 6 Xposition Yposition Zposition Zrotation Xrotation Yrotation
              JOINT Bip01_L_UpperArm
              {
                OFFSET 13.2558 0 0
                CHANNELS 6 Xposition Yposition Zposition Zrotation Xrotation Yrotation
                JOINT Bip01_L_Forearm
                {
                  OFFSET 12.8897 0 0
                  CHANNELS 6 Xposition Yposition Zposition Zrotation Xrotation Yrotation
                  JOINT Bip01_L_Hand
                  {
                    OFFSET 11.2622 0 0
                    CHANNELS 6 Xposition Yposition Zposition Zrotation Xrotation Yrotation
                    JOINT Bip01_L_Finger0
                    {
                      OFFSET 3.98014 -0.20866 0.0949764
                      CHANNELS 6 Xposition Yposition Zposition Zrotation Xrotation Yrotation
                      JOINT Bip01_L_Finger0Nub
                      {
                        OFFSET 6.57562 0 0
                        CHANNELS 6 Xposition Yposition Zposition Zrotation Xrotation Yrotation
                        End Site
                        {
                          OFFSET 0 0 0
                        }
                      }
                    }
                  }
                }
              }
            }
            JOINT Bip01_Neck1
            {
              OFFSET 4.19352 -0.00332451 0
              CHANNELS 6 Xposition Yposition Zposition Zrotation Xrotation Yrotation
              JOINT Bip01_Head
              {
                OFFSET 4.17604 0.298252 0
                CHANNELS 6 Xposition Yposition Zposition Zrotation Xrotation Yrotation
                JOINT BN_Eye_R_01
                {
                  OFFSET 6.53258 -3.90694 -2.55361
                  CHANNELS 6 Xposition Yposition Zposition Zrotation Xrotation Yrotation
                  End Site
                  {
                    OFFSET 0 0 0
                  }
                }
                JOINT BN_Eye_L_01
                {
                  OFFSET 6.5326 -3.90694 2.55371
                  CHANNELS 6 Xposition Yposition Zposition Zrotation Xrotation Yrotation
                  End Site
                  {
                    OFFSET 0 0 0
                  }
                }
                JOINT BN_Ear_R_01
                {
                  OFFSET 1.75934 -4.1584 -4.45634
                  CHANNELS 6 Xposition Yposition Zposition Zrotation Xrotation Yrotation
                  End Site
                  {
                    OFFSET 0 0 0
                  }
                }
                JOINT BN_Ear_L_01
                {
                  OFFSET 1.75933 -4.15841 4.45616
                  CHANNELS 6 Xposition Yposition Zposition Zrotation Xrotation Yrotation
                  End Site
                  {
                    OFFSET 0 0 0
                  }
                }
                JOINT BN_Beard_L_01
                {
                  OFFSET 11.2964 -1.06183 2.32054
                  CHANNELS 6 Xposition Yposition Zposition Zrotation Xrotation Yrotation
                  End Site
                  {
                    OFFSET 0 0 0
                  }
                }
                JOINT BN_Beard_R_01
                {
                  OFFSET 11.2964 -1.06182 -2.32036
                  CHANNELS 6 Xposition Yposition Zposition Zrotation Xrotation Yrotation
                  End Site
                  {
                    OFFSET 0 0 0
                  }
                }
                JOINT BN_Mouth_0
                {
                  OFFSET 1.3149 1.30001 0
                  CHANNELS 6 Xposition Yposition Zposition Zrotation Xrotation Yrotation
                  End Site
                  {
                    OFFSET 0 0 0
                  }
                }
                JOINT Bip01_HeadNub
                {
                  OFFSET 12.6869 0 0
                  CHANNELS 6 Xposition Yposition Zposition Zrotation Xrotation Yrotation
                  End Site
                  {
                    OFFSET 0 0 0
                  }
                }
              }
            }
          }
        }
      }
    }
  }
}
MOTION
Frames:	4
Frame Time:	0.0333333
-21.6994 31.7785 4.14379e-011 -180 -90 -90 0 1.13687e-013 0 -89.998 -0.00215165 -96.0999 -7.25226 -1.74978 -2.38419e-007 -23.6608 -17.7451 -167.135 15.788 -7.10543e-015 5.32907e-015 -18.7845 -3.3625 13.7041 16.0015 -1.77636e-014 -7.10543e-015 -7.50595 1.50712 11.6251 16.1689 -1.66978e-013 -1.90735e-006 4.51678 15.832 12.1598 6.37426 2.70859 -0.680398 4.14955 -0.172346 5.00506 6.12662 8.45826 1.95369e-008 -88.9944 -0.0320282 -179.967 -6.11361 -2.22567 -5.30882 -131.616 5.56983 175.585 13.6591 3.8147e-006 3.55271e-015 -124.896 -5.90946e-006 8.41264e-006 9.07516 7.10543e-015 3.55271e-015 90.4124 -1.46851e-008 1.11197e-006 8.13856 3.8147e-006 -9.53674e-007 -83.0141 -6.7929 4.08635 3.79737 6.30086 -2.25677e-010 90.0532 0.00618474 -5.73825e-006 0.838764 -2.98023e-008 1.77636e-015 -2.18881e-008 -3.92596e-010 4.34375e-010 -7.06121 -2.2585 5.50444 -96.6047 -2.55764 -172.177 13.6591 -1.90735e-006 3.55271e-015 -41.1373 6.64487e-006 6.3994e-006 9.07515 3.55271e-015 4.76837e-007 19.6381 9.72589e-006 -3.59579e-006 8.13856 -7.6294e-006 -4.76837e-007 19.8475 -1.21634 -7.36943 3.79737 6.30086 -4.34444e-011 89.8974 5.00073e-012 2.4983e-010 0.838764 -1.90735e-006 4.76837e-007 -179.96 -0.001081 -0.000697 12.1687 -0.0105438 2.60736e-008 -4.09252 -1.15989 1.80291 -0.157498 5.09008 -6.54008 -92.7406 -0.022027 -167.965 -0.157501 5.09007 6.54 87.255 -0.000390924 12.0139 8.29709 8.50414 -6.48797e-008 -91.651 -0.0228271 -179.978 13.2802 -0.0100708 1.51992e-005 -8.58101 0.0767838 1.3139 12.4891 -6.66662 9.55421e-009 -5.06555 -1.72311e-005 -1.61494e-006 -7.42412 -2.90593 -1.17848 -174.993 -60.0137 90.9242 13.2557 -1.90735e-006 1.84741e-013 51.8621 7.06184 -92.9707 12.8897 9.53674e-007 4.44089e-016 -37.7305 -1.89593e-005 -2.56132e-006 11.2622 1.59872e-014 -1.33227e-015 -131.003 82.9284 126.098 3.98015 -0.208661 -0.0949803 -4.37674 -4.58096 -25.4685 6.57561 1.19209e-007 -3.55272e-015 179.96 1.73145e-005 -1.50473e-005 -7.42322 -2.90553 1.17734 -174.992 58.1406 -112.143 13.2558 1.3145e-013 1.90735e-006 73.2905 -41.2658 116.003 12.8897 3.8147e-006 1.28786e-014 -44.5825 -8.28841e-006 6.2487e-006 11.2622 -3.55271e-015 2.22045e-015 -130.585 -83.3379 -134.299 3.98014 -0.20866 0.0949764 -4.37781 4.58039 67.618 6.57562 -4.88498e-015 -1.5099e-014 -2.03946e-008 -1.51214e-007 -6.03283e-008 4.19352 -0.00332451 -2.97945e-008 -5.06555 9.94786e-006 9.27682e-007 4.17604 0.298252 2.89201e-008 47.4684 0.297831 -2.98117 6.53258 -3.90694 -2.55361 133.025 18.1402 163.594 6.5326 -3.90694 2.55371 -46.9761 18.1112 -16.4184 1.75935 -4.1584 -4.45634 24.7931 -39.7306 142.462 1.75933 -4.15841 4.45616 -155.196 -39.7317 -37.5281 11.2964 -1.06183 2.32054 151.669 -1.38962 -90.4325 11.2964 -1.06182 -2.32036 -28.182 0.0802825 90.0372 1.3149 1.30001 5.61128e-008 -172.943 -0.0383148 -179.998 12.6869 7.6294e-006 5.96046e-008 6.98603e-007 -9.26749e-009 -1.73232e-008 
-21.6994 31.7919 2.27888e-010 -180 -90 -90 0 1.13687e-013 0 -89.9967 -0.00375719 -96.4557 -7.25226 -1.74978 -2.38419e-007 -24.0882 -17.7349 -167.404 15.788 7.10543e-015 0 -19.073 -3.37331 13.6818 16.0015 -1.77636e-014 -3.55271e-015 -9.42294 1.50221 12.4336 16.1689 -1.59872e-013 -1.90735e-006 2.18174 15.2357 14.5282 6.36966 2.70859 -0.721299 3.63233 -0.191409 5.11619 6.12662 8.45826 1.96442e-008 -88.9944 -0.0320282 -179.967 -6.08208 -2.2835 -5.27764 -132.119 5.41409 175.274 13.6591 3.8147e-006 8.88178e-015 -123.61 -5.70383e-006 8.55656e-006 9.07516 0 5.32907e-015 89.4387 -4.54123e-008 1.1387e-006 8.13856 3.8147e-006 -9.53674e-007 -80.04 -6.64903 4.41973 3.79737 6.30086 -3.61603e-010 89.9221 0.0074139 1.00884e-005 0.838764 -2.98023e-008 1.77636e-015 -2.18881e-008 -3.92596e-010 4.34375e-010 -7.05048 -2.32036 5.53377 -94.1958 -2.59548 -172.134 13.6591 -1.90735e-006 3.55271e-015 -39.2492 6.90265e-006 6.20273e-006 9.07515 0 4.76837e-007 18.8542 9.74278e-006 -3.46019e-006 8.13856 -7.6294e-006 -4.76837e-007 20.3095 -1.22759 -7.36067 3.79737 6.30086 -4.39932e-011 90.0259 -0.00247616 1.11831e-006 0.838764 -1.90735e-006 4.76837e-007 -179.96 -0.001081 -0.000697 12.1687 -0.0105438 2.60734e-008 -3.32869 -1.09433 2.01511 -0.157498 5.09008 -6.54008 -92.7406 -0.0220269 -167.965 -0.157501 5.09007 6.54 87.255 -0.000390924 12.0139 8.29709 8.50414 -6.43617e-008 -91.651 -0.0228271 -179.978 13.2802 -0.0100708 1.51992e-005 -8.52132 0.050526 1.48721 12.4891 -6.66662 9.12804e-009 -5.17406 -1.72231e-005 -1.64732e-006 -7.41811 -2.92042 -1.17657 -174.885 -59.9711 91.7016 13.2557 -1.90735e-006 1.7053e-013 51.8451 4.70976 -93.2399 12.8897 9.53674e-007 8.88179e-016 -43.116 -1.17634e-005 -1.17068e-005 11.2622 8.88178e-015 0 -131.128 83.0392 127.979 3.98015 -0.208661 -0.0949803 -4.48378 -4.65942 -23.0492 6.57561 1.19209e-007 -1.06581e-014 179.96 1.73145e-005 -1.50473e-005 -7.41824 -2.92007 1.17928 -174.88 58.2236 -111.555 13.2558 1.27898e-013 1.90735e-006 72.4578 -40.6565 115.446 12.8897 3.8147e-006 1.33227e-014 -45.4342 -8.4121e-006 6.08485e-006 11.2622 -1.77636e-014 -8.88178e-016 -128.798 -83.3069 -132.849 3.98014 -0.20866 0.0949764 -4.37728 4.59747 68.7811 6.57562 -7.10542e-015 -5.77316e-015 -2.03946e-008 -1.51214e-007 -6.03283e-008 4.19352 -0.00332451 -2.97945e-008 -4.90102 3.47737e-005 -0.000288549 4.17604 0.298252 2.88946e-008 47.1224 0.160531 -3.08819 6.53258 -3.90694 -2.55361 133.025 18.1402 163.594 6.5326 -3.90694 2.55371 -46.976 18.1112 -16.4184 1.75935 -4.1584 -4.45634 24.8015 -39.7589 142.192 1.75933 -4.15841 4.45616 -155.184 -39.7603 -37.7953 11.2964 -1.06183 2.32054 151.659 -2.22944 -90.7464 11.2964 -1.06182 -2.32036 -28.2077 -0.689708 89.7479 1.3149 1.30001 5.60488e-008 -172.884 -0.0382996 -179.998 12.6869 7.6294e-006 5.96046e-008 6.98603e-007 -9.26749e-009 -1.73232e-008 
-21.6994 31.7903 2.05152e-010 -180 -90 -90 0 1.13687e-013 0 -89.9992 -0.000909896 -96.8084 -7.25226 -1.74978 -2.38419e-007 -24.5678 -17.6707 -167.702 15.788 -7.10543e-015 3.55271e-015 -19.3289 -3.37958 13.6166 16.0015 -7.10543e-015 0 -11.3532 1.47348 13.189 16.1689 -1.38556e-013 -1.90735e-006 -0.141349 14.5401 16.8851 6.36502 2.70859 -0.75898 2.90076 -0.233488 5.1641 6.12662 8.45826 1.96207e-008 -88.9944 -0.0320282 -179.967 -6.04642 -2.36381 -5.24442 -132.555 5.21108 174.905 13.6591 3.8147e-006 7.10543e-015 -121.793 -5.40655e-006 8.74897e-006 9.07516 7.10543e-015 3.55271e-015 87.3555 -8.5025e-008 1.17698e-006 8.13856 3.8147e-006 -9.53674e-007 -75.7529 -6.46038 4.84191 3.79737 6.30086 -3.6016e-010 89.5561 0.00490246 3.7983e-005 0.838764 -2.98023e-008 5.32907e-015 -2.18881e-008 -3.92596e-010 4.34375e-010 -7.02383 -2.40808 5.56614 -91.6307 -2.69235 -172.083 13.6591 -1.90735e-006 0 -37.5273 7.14406e-006 6.02429e-006 9.07515 0 4.76837e-007 18.2117 9.74607e-006 -3.34944e-006 8.13856 -7.6294e-006 -4.76837e-007 20.6103 -1.22187 -7.35842 3.79737 6.30086 -2.64464e-011 89.5618 -1.00347e-008 7.39943e-011 0.838764 -1.90735e-006 4.76837e-007 -179.96 -0.001081 -0.000697 12.1687 -0.0105438 2.60735e-008 -2.3759 -1.01273 2.30872 -0.157498 5.09008 -6.54008 -92.7406 -0.0220419 -167.965 -0.157501 5.09007 6.54 87.255 -0.000390924 12.0139 8.29709 8.50414 -6.38132e-008 -91.651 -0.0228271 -179.978 13.2802 -0.0100708 1.51992e-005 -8.43618 0.0434205 1.59944 12.4891 -6.66662 8.20857e-009 -5.2124 -2.0188e-005 3.09029e-005 -7.41611 -2.92523 -1.17819 -174.841 -59.9284 92.4396 13.2557 -1.90735e-006 1.74083e-013 51.8739 2.73758 -93.4969 12.8897 9.53674e-007 3.9968e-015 -48.2329 -1.06869e-005 -1.27801e-005 11.2622 1.06581e-014 -5.32907e-015 -131.7 83.1536 130.118 3.98015 -0.208661 -0.0949803 -4.56534 -4.72805 -20.5441 6.57561 1.19209e-007 -8.88179e-015 179.96 1.73145e-005 -1.50472e-005 -7.41625 -2.92489 1.17766 -174.845 58.3473 -110.807 13.2558 1.3145e-013 1.90735e-006 71.7559 -40.484 114.932 12.8897 3.8147e-006 1.15463e-014 -45.7711 -1.28812e-006 -9.9522e-007 11.2622 -1.77636e-014 -8.88178e-016 -126.945 -83.2741 -131.251 3.98014 -0.20866 0.0949764 -4.38834 4.61911 70.1433 6.57562 -2.66453e-015 -5.32907e-015 -2.03946e-008 -1.51214e-007 -6.03283e-008 4.19352 -0.00332451 -2.97947e-008 -4.73486 8.12992e-005 -0.000860426 4.17604 0.298252 2.88947e-008 46.7066 0.0123203 -3.15311 6.53258 -3.90694 -2.55361 133.025 18.1401 163.594 6.5326 -3.90694 2.55371 -46.976 18.1112 -16.4184 1.75935 -4.1584 -4.45634 24.8097 -39.7875 141.919 1.75933 -4.15841 4.45616 -155.173 -39.7893 -38.0651 11.2964 -1.06183 2.32054 151.646 -3.07768 -91.0638 11.2964 -1.06182 -2.32036 -28.2375 -1.46867 89.4545 1.3149 1.30001 5.59655e-008 -172.824 -0.0382691 -179.998 12.6869 7.6294e-006 5.96046e-008 6.98603e-007 -9.26749e-009 -1.73232e-008 
-21.6994 31.7756 6.35763e-016 -180 -90 -90 0 1.13687e-013 0 -89.995 -0.00569973 -97.1335 -7.25226 -1.74978 -2.38419e-007 -25.0813 -17.5577 -168.018 15.788 0 -7.10543e-015 -19.5456 -3.38164 13.5151 16.0015 -1.42109e-014 7.10543e-015 -13.2313 1.42769 13.8911 16.1689 -1.3145e-013 -1.90735e-006 -2.3814 13.7704 19.1591 6.36048 2.70859 -0.79593 2.02594 -0.286857 5.15895 6.12662 8.45826 1.93826e-008 -88.9944 -0.0320282 -179.967 -6.00836 -2.45877 -5.20644 -132.917 4.99829 174.488 13.6591 3.8147e-006 7.10543e-015 -119.574 -5.03367e-006 8.97097e-006 9.07516 3.55271e-015 3.55271e-015 84.394 -1.28185e-007 1.22268e-006 8.13856 3.8147e-006 -9.53674e-007 -70.4937 -6.21835 5.31736 3.79737 6.30086 -1.57332e-010 89.1973 0.00245511 3.43984e-005 0.838764 -2.98023e-008 0 -2.18881e-008 -3.92596e-010 4.34375e-010 -6.98476 -2.51311 5.60417 -89.0419 -2.83605 -172.02 13.6591 -1.90735e-006 1.77636e-015 -36.0384 7.35841e-006 5.87148e-006 9.07515 0 4.76837e-007 17.7384 9.73826e-006 -3.26901e-006 8.13856 -7.6294e-006 -4.76837e-007 20.7422 -1.19963 -7.36262 3.79737 6.30086 -2.91465e-011 88.5581 7.77914e-011 9.54624e-011 0.838764 -1.90735e-006 4.76837e-007 -179.96 -0.001081 -0.000697 12.1687 -0.0105438 2.60738e-008 -1.31502 -0.919099 2.65829 -0.157498 5.09008 -6.54008 -92.7406 -0.0220419 -167.965 -0.157501 5.09007 6.54 87.255 -0.000390924 12.0139 8.29709 8.50414 -6.32449e-008 -91.651 -0.0228271 -179.978 13.2802 -0.0100708 1.51992e-005 -8.33215 0.0470002 1.66553 12.4891 -6.66662 6.9353e-009 -5.19507 -0.000319189 0.00331967 -7.4171 -2.92284 -1.17825 -174.853 -59.8867 93.1235 13.2557 -1.90735e-006 1.7053e-013 51.9489 1.15526 -93.7174 12.8897 9.53674e-007 0 -53.0056 -9.63185e-006 -1.36951e-005 11.2622 4.44089e-015 4.44089e-016 -132.694 83.2569 132.51 3.98015 -0.208661 -0.0949803 -4.64233 -4.79861 -18.0875 6.57561 1.19209e-007 -1.06581e-014 179.96 1.73146e-005 -1.50472e-005 -7.41724 -2.92249 1.17757 -174.863 58.4889 -109.946 13.2558 1.1724e-013 1.90735e-006 71.1798 -40.6906 114.466 12.8897 3.8147e-006 8.88178e-016 -45.6921 -1.29165e-006 -1.03567e-006 11.2622 7.10542e-015 2.22045e-015 -125.087 -83.2461 -129.604 3.98014 -0.20866 0.0949764 -4.41271 4.64257 71.6348 6.57562 -7.9936e-015 -4.44089e-016 -2.03946e-008 -1.51214e-007 -6.03283e-008 4.19352 -0.00332451 -2.9795e-008 -4.56851 0.000131031 -0.00151427 4.17604 0.298252 2.89115e-008 46.254 -0.144416 -3.17873 6.53258 -3.90694 -2.55361 133.025 18.1401 163.594 6.5326 -3.90694 2.55371 -46.976 18.1112 -16.4184 1.75935 -4.1584 -4.45634 24.8177 -39.8155 141.651 1.75933 -4.15841 4.45616 -155.162 -39.8177 -38.3298 11.2964 -1.06183 2.32054 151.628 -3.90927 -91.3756 11.2964 -1.06182 -2.32036 -28.2704 -2.23273 89.1662 1.3149 1.30001 5.59147e-008 -172.765 -0.0382385 -179.998 12.6869 7.6294e-006 5.96046e-008 6.98603e-007 -9.26749e-009 -1.73232e-008 
